<mxfile host="65bd71144e">
    <diagram id="SI7tuCP2dQLLvXjDpIHG" name="Page-1">
        <mxGraphModel dx="566" dy="1703" grid="1" gridSize="10" guides="1" tooltips="1" connect="1" arrows="1" fold="1" page="1" pageScale="1" pageWidth="827" pageHeight="1169" math="0" shadow="0">
            <root>
                <mxCell id="0"/>
                <mxCell id="1" parent="0"/>
                <mxCell id="276" style="edgeStyle=none;rounded=0;html=1;entryX=0.5;entryY=0;entryDx=0;entryDy=0;endArrow=classic;endFill=1;" parent="1" source="3" target="284" edge="1">
                    <mxGeometry relative="1" as="geometry">
                        <mxPoint x="424" y="-1010" as="targetPoint"/>
                    </mxGeometry>
                </mxCell>
                <mxCell id="3" value="Start" style="strokeWidth=2;html=1;shape=mxgraph.flowchart.terminator;whiteSpace=wrap;" parent="1" vertex="1">
                    <mxGeometry x="375" y="-1110" width="100" height="60" as="geometry"/>
                </mxCell>
                <mxCell id="10" value="Stop" style="strokeWidth=2;html=1;shape=mxgraph.flowchart.terminator;whiteSpace=wrap;rounded=1;" parent="1" vertex="1">
                    <mxGeometry x="374" y="-210" width="100" height="60" as="geometry"/>
                </mxCell>
                <mxCell id="287" value="" style="edgeStyle=none;html=1;" edge="1" parent="1" source="284" target="286">
                    <mxGeometry relative="1" as="geometry"/>
                </mxCell>
                <mxCell id="296" value="" style="edgeStyle=none;rounded=0;html=1;exitX=1;exitY=0.5;exitDx=0;exitDy=0;entryX=0.5;entryY=0;entryDx=0;entryDy=0;" edge="1" parent="1" source="284" target="295">
                    <mxGeometry relative="1" as="geometry">
                        <mxPoint x="430" y="-710" as="targetPoint"/>
                        <Array as="points">
                            <mxPoint x="500" y="-945"/>
                            <mxPoint x="500" y="-660"/>
                            <mxPoint x="460" y="-660"/>
                            <mxPoint x="424" y="-660"/>
                        </Array>
                    </mxGeometry>
                </mxCell>
                <mxCell id="284" value="for counter in range(11)" style="rhombus;whiteSpace=wrap;html=1;" vertex="1" parent="1">
                    <mxGeometry x="364" y="-1000" width="120" height="110" as="geometry"/>
                </mxCell>
                <mxCell id="294" style="edgeStyle=none;html=1;entryX=0;entryY=0.5;entryDx=0;entryDy=0;rounded=0;exitX=0;exitY=0.5;exitDx=0;exitDy=0;" edge="1" parent="1" source="311" target="284">
                    <mxGeometry relative="1" as="geometry">
                        <Array as="points">
                            <mxPoint x="350" y="-720"/>
                            <mxPoint x="350" y="-945"/>
                        </Array>
                    </mxGeometry>
                </mxCell>
                <mxCell id="312" value="" style="edgeStyle=none;rounded=0;html=1;" edge="1" parent="1" source="286" target="311">
                    <mxGeometry relative="1" as="geometry"/>
                </mxCell>
                <mxCell id="286" value="Generate random number" style="shape=parallelogram;perimeter=parallelogramPerimeter;whiteSpace=wrap;html=1;fixedSize=1;" vertex="1" parent="1">
                    <mxGeometry x="364" y="-844" width="120" height="60" as="geometry"/>
                </mxCell>
                <mxCell id="288" value="yes" style="text;html=1;strokeColor=none;fillColor=none;align=center;verticalAlign=middle;whiteSpace=wrap;rounded=0;" vertex="1" parent="1">
                    <mxGeometry x="440" y="-890" width="60" height="30" as="geometry"/>
                </mxCell>
                <mxCell id="293" value="no" style="text;html=1;strokeColor=none;fillColor=none;align=center;verticalAlign=middle;whiteSpace=wrap;rounded=0;" vertex="1" parent="1">
                    <mxGeometry x="475" y="-990" width="60" height="30" as="geometry"/>
                </mxCell>
                <mxCell id="306" value="" style="edgeStyle=none;rounded=0;html=1;" edge="1" parent="1" source="295" target="297">
                    <mxGeometry relative="1" as="geometry"/>
                </mxCell>
                <mxCell id="308" style="edgeStyle=none;rounded=0;html=1;entryX=1;entryY=0.5;entryDx=0;entryDy=0;" edge="1" parent="1" source="295" target="301">
                    <mxGeometry relative="1" as="geometry">
                        <Array as="points">
                            <mxPoint x="500" y="-565"/>
                            <mxPoint x="500" y="-360"/>
                        </Array>
                    </mxGeometry>
                </mxCell>
                <mxCell id="295" value="for counter in range(11)" style="rhombus;whiteSpace=wrap;html=1;" vertex="1" parent="1">
                    <mxGeometry x="364" y="-620" width="120" height="110" as="geometry"/>
                </mxCell>
                <mxCell id="307" style="edgeStyle=none;rounded=0;html=1;entryX=0;entryY=0.5;entryDx=0;entryDy=0;" edge="1" parent="1" source="297" target="295">
                    <mxGeometry relative="1" as="geometry">
                        <mxPoint x="360" y="-560" as="targetPoint"/>
                        <Array as="points">
                            <mxPoint x="350" y="-450"/>
                            <mxPoint x="350" y="-565"/>
                        </Array>
                    </mxGeometry>
                </mxCell>
                <mxCell id="297" value="total = total +&lt;br&gt;&amp;nbsp;random" style="shape=parallelogram;perimeter=parallelogramPerimeter;whiteSpace=wrap;html=1;fixedSize=1;" vertex="1" parent="1">
                    <mxGeometry x="365" y="-480" width="120" height="60" as="geometry"/>
                </mxCell>
                <mxCell id="305" value="" style="edgeStyle=none;rounded=0;html=1;" edge="1" parent="1" source="301" target="304">
                    <mxGeometry relative="1" as="geometry"/>
                </mxCell>
                <mxCell id="301" value="total / totalNum" style="shape=parallelogram;perimeter=parallelogramPerimeter;whiteSpace=wrap;html=1;fixedSize=1;" vertex="1" parent="1">
                    <mxGeometry x="364" y="-390" width="120" height="60" as="geometry"/>
                </mxCell>
                <mxCell id="313" value="" style="edgeStyle=none;rounded=0;html=1;" edge="1" parent="1" source="304" target="10">
                    <mxGeometry relative="1" as="geometry"/>
                </mxCell>
                <mxCell id="304" value="print total" style="shape=parallelogram;perimeter=parallelogramPerimeter;whiteSpace=wrap;html=1;fixedSize=1;" vertex="1" parent="1">
                    <mxGeometry x="364" y="-310" width="120" height="60" as="geometry"/>
                </mxCell>
                <mxCell id="309" value="yes" style="text;html=1;strokeColor=none;fillColor=none;align=center;verticalAlign=middle;whiteSpace=wrap;rounded=0;" vertex="1" parent="1">
                    <mxGeometry x="425" y="-534" width="60" height="30" as="geometry"/>
                </mxCell>
                <mxCell id="310" value="no" style="text;html=1;strokeColor=none;fillColor=none;align=center;verticalAlign=middle;whiteSpace=wrap;rounded=0;" vertex="1" parent="1">
                    <mxGeometry x="470" y="-610" width="60" height="30" as="geometry"/>
                </mxCell>
                <mxCell id="311" value="print random&lt;br&gt;&amp;nbsp;number" style="shape=parallelogram;perimeter=parallelogramPerimeter;whiteSpace=wrap;html=1;fixedSize=1;" vertex="1" parent="1">
                    <mxGeometry x="364" y="-750" width="120" height="60" as="geometry"/>
                </mxCell>
            </root>
        </mxGraphModel>
    </diagram>
</mxfile>